SplineFontDB: 3.2
FontName: Untitled1
FullName: Untitled1
FamilyName: Untitled1
Weight: Regular
Copyright: Copyright (c) 2023, neilb
UComments: "2023-1-30: Created with FontForge (http://fontforge.org)"
Version: 001.000
ItalicAngle: 0
UnderlinePosition: -100
UnderlineWidth: 50
Ascent: 800
Descent: 200
InvalidEm: 0
LayerCount: 2
Layer: 0 0 "Back" 1
Layer: 1 0 "Fore" 0
XUID: [1021 913 887202693 23237]
StyleMap: 0x0000
FSType: 0
OS2Version: 0
OS2_WeightWidthSlopeOnly: 0
OS2_UseTypoMetrics: 1
CreationTime: 1675081307
ModificationTime: 1759328299
OS2TypoAscent: 0
OS2TypoAOffset: 1
OS2TypoDescent: 0
OS2TypoDOffset: 1
OS2TypoLinegap: 90
OS2WinAscent: 0
OS2WinAOffset: 1
OS2WinDescent: 0
OS2WinDOffset: 1
HheadAscent: 0
HheadAOffset: 1
HheadDescent: 0
HheadDOffset: 1
OS2Vendor: 'PfEd'
DEI: 91125
Encoding: UnicodeBmp
UnicodeInterp: none
NameList: AGL For New Fonts
DisplaySize: -48
AntiAlias: 1
FitToEm: 1
WinInfo: 32 16 11
BeginChars: 65571 116

StartChar: quarterdot
Encoding: 65536 -1 0
Width: 0
VWidth: 0
Flags: HMW
LayerCount: 2
Fore
SplineSet
0 0 m 1
 0 50 l 1
 50 50 l 1
 50 0 l 1
 0 0 l 1
EndSplineSet
EndChar

StartChar: dot
Encoding: 65537 -1 7
Width: 0
VWidth: 0
Flags: HMW
LayerCount: 2
Fore
SplineSet
0 0 m 29
 0 101 l 29
 101 101 l 29
 101 0 l 29
 0 0 l 29
EndSplineSet
EndChar

StartChar: four
Encoding: 52 52 8
Width: 600
VWidth: 0
Flags: HMW
LayerCount: 2
Fore
SplineSet
450 0 m 1
 350 0 l 1
 350 200 l 1
 50 200 l 1
 50 470 l 1
 280 700 l 1
 450 700 l 1
 450 300 l 1
 550 300 l 1
 550 200 l 1
 450 200 l 1
 450 0 l 1
150 300 m 1
 350 300 l 1
 350 600 l 1
 320 600 l 1
 150 430 l 1
 150 300 l 1
EndSplineSet
EndChar

StartChar: arrowup
Encoding: 8593 8593 35
Width: 800
Flags: HMW
LayerCount: 2
Fore
SplineSet
150 472 m 1
 378 700 l 1
 422 700 l 1
 650 472 l 1
 650 400 l 1
 578 400 l 1
 450 528 l 1
 450 0 l 1
 350 0 l 1
 350 528 l 1
 222 400 l 1
 150 400 l 1
 150 472 l 1
EndSplineSet
EndChar

StartChar: arrowright
Encoding: 8594 8594 36
Width: 800
Flags: HMW
LayerCount: 2
Fore
SplineSet
522 600 m 1
 750 372 l 1
 750 328 l 1
 522 100 l 1
 450 100 l 1
 450 172 l 1
 578 300 l 1
 50 300 l 1
 50 400 l 1
 578 400 l 1
 450 528 l 1
 450 600 l 1
 522 600 l 1
EndSplineSet
EndChar

StartChar: arrowdown
Encoding: 8595 8595 37
Width: 800
Flags: HMW
LayerCount: 2
Fore
SplineSet
650 228 m 1
 422 0 l 1
 378 0 l 1
 150 228 l 1
 150 300 l 1
 222 300 l 1
 350 172 l 1
 350 700 l 1
 450 700 l 1
 450 172 l 1
 578 300 l 1
 650 300 l 1
 650 228 l 1
EndSplineSet
EndChar

StartChar: arrowupdn
Encoding: 8597 8597 39
Width: 800
Flags: HMW
LayerCount: 2
Fore
SplineSet
150 472 m 1
 378 700 l 1
 422 700 l 1
 650 472 l 1
 650 400 l 1
 578 400 l 1
 450 528 l 1
 450 172 l 1
 578 300 l 1
 650 300 l 1
 650 228 l 1
 422 0 l 1
 378 0 l 1
 150 228 l 1
 150 300 l 1
 222 300 l 1
 350 172 l 1
 350 528 l 1
 222 400 l 1
 150 400 l 1
 150 472 l 1
EndSplineSet
EndChar

StartChar: uni25B6
Encoding: 9654 9654 42
Width: 800
Flags: HMW
LayerCount: 2
Fore
SplineSet
222 0 m 1
 50 0 l 1
 50 700 l 1
 222 700 l 1
 322 600 l 1
 422 600 l 1
 522 500 l 1
 622 500 l 1
 750 372 l 1
 750 328 l 1
 622 200 l 1
 522 200 l 1
 422 100 l 1
 322 100 l 1
 222 0 l 1
EndSplineSet
EndChar

StartChar: uni25B8
Encoding: 9656 9656 43
Width: 600
Flags: HMW
LayerCount: 2
Fore
SplineSet
125 125 m 1
 125 625 l 1
 247 625 l 1
 475 397 l 1
 475 353 l 1
 247 125 l 1
 125 125 l 1
EndSplineSet
EndChar

StartChar: triagdn
Encoding: 9660 9660 44
Width: 800
Flags: HMW
LayerCount: 2
Fore
SplineSet
50 528 m 1
 50 700 l 1
 750 700 l 1
 750 528 l 1
 650 428 l 1
 650 328 l 1
 550 228 l 1
 550 128 l 1
 422 0 l 1
 378 0 l 1
 250 128 l 1
 250 228 l 1
 150 328 l 1
 150 428 l 1
 50 528 l 1
EndSplineSet
EndChar

StartChar: uni25C0
Encoding: 9664 9664 45
Width: 800
Flags: HMW
LayerCount: 2
Fore
SplineSet
578 700 m 1
 750 700 l 1
 750 0 l 1
 578 0 l 1
 478 100 l 1
 378 100 l 1
 278 200 l 1
 178 200 l 1
 50 328 l 1
 50 372 l 1
 178 500 l 1
 278 500 l 1
 378 600 l 1
 478 600 l 1
 578 700 l 1
EndSplineSet
EndChar

StartChar: uni25BE
Encoding: 9662 9662 48
Width: 600
Flags: HMW
LayerCount: 2
Fore
SplineSet
50 550 m 1
 550 550 l 1
 550 428 l 1
 322 200 l 1
 278 200 l 1
 50 428 l 1
 50 550 l 1
EndSplineSet
EndChar

StartChar: uni25C2
Encoding: 9666 9666 49
Width: 600
Flags: HMW
LayerCount: 2
Fore
SplineSet
475 625 m 1
 475 125 l 1
 353 125 l 1
 125 353 l 1
 125 397 l 1
 353 625 l 1
 475 625 l 1
EndSplineSet
EndChar

StartChar: uni23EA
Encoding: 9194 9194 54
Width: 900
Flags: HMW
LayerCount: 2
Fore
SplineSet
450 372 m 1
 778 700 l 1
 850 700 l 1
 850 0 l 1
 778 0 l 1
 450 328 l 1
 450 0 l 1
 378 0 l 1
 50 328 l 1
 50 372 l 1
 378 700 l 1
 450 700 l 1
 450 372 l 1
EndSplineSet
EndChar

StartChar: uni058E
Encoding: 1422 1422 76
Width: 800
Flags: HW
LayerCount: 2
Fore
SplineSet
378 0 m 1
 278 100 l 1
 178 100 l 1
 50 228 l 1
 50 372 l 1
 150 472 l 1
 150 572 l 1
 278 700 l 1
 422 700 l 1
 522 600 l 1
 622 600 l 1
 750 472 l 1
 750 328 l 1
 650 228 l 1
 650 128 l 1
 522 0 l 1
 378 0 l 1
422 100 m 1
 478 100 l 1
 550 172 l 1
 550 200 l 1
 478 200 l 1
 400 278 l 1
 350 228 l 1
 350 172 l 1
 422 100 l 1
150 328 m 1
 150 272 l 1
 222 200 l 1
 250 200 l 1
 250 272 l 1
 328 350 l 1
 278 400 l 1
 222 400 l 1
 150 328 l 1
378 600 m 1
 322 600 l 1
 250 528 l 1
 250 500 l 1
 322 500 l 1
 400 422 l 1
 450 472 l 1
 450 528 l 1
 378 600 l 1
650 372 m 1
 650 428 l 1
 578 500 l 1
 550 500 l 1
 550 428 l 1
 472 350 l 1
 522 300 l 1
 578 300 l 1
 650 372 l 1
EndSplineSet
EndChar

StartChar: chamferTR
Encoding: 65552 -1 95
Width: 0
VWidth: 0
Flags: HW
LayerCount: 2
Fore
SplineSet
50 50 m 1
 50 100 l 5
 72 100 l 1
 100 72 l 1
 100 50 l 1
 50 50 l 1
EndSplineSet
EndChar

StartChar: concaveTR
Encoding: 65553 -1 96
Width: 0
VWidth: 0
Flags: HW
LayerCount: 2
Fore
SplineSet
122 50 m 1
 50 50 l 1
 50 100 l 5
 100 100 l 1
 100 72 l 1
 122 50 l 1
EndSplineSet
EndChar

StartChar: convexTR
Encoding: 65554 -1 97
Width: 0
VWidth: 0
Flags: HW
LayerCount: 2
Fore
SplineSet
50 50 m 1
 50 100 l 5
 72 100 l 1
 122 50 l 1
 50 50 l 1
EndSplineSet
EndChar

StartChar: midTR
Encoding: 65555 -1 98
Width: 0
VWidth: 0
Flags: HW
LayerCount: 2
Fore
SplineSet
50 100 m 5
 172 100 l 1
 122 50 l 1
 50 50 l 1
 50 100 l 5
EndSplineSet
EndChar

StartChar: chamferBR
Encoding: 65556 -1 99
Width: 0
VWidth: 0
Flags: HW
LayerCount: 2
Fore
SplineSet
50 50 m 5
 100 50 l 1
 100 28 l 1
 72 0 l 1
 50 0 l 1
 50 50 l 5
EndSplineSet
EndChar

StartChar: concaveBR
Encoding: 65557 -1 100
Width: 0
VWidth: 0
Flags: HW
LayerCount: 2
Fore
SplineSet
122 50 m 1
 100 28 l 1
 100 0 l 1
 50 0 l 1
 50 50 l 1
 122 50 l 1
EndSplineSet
EndChar

StartChar: convexBR
Encoding: 65558 -1 101
Width: 0
VWidth: 0
Flags: HW
LayerCount: 2
Fore
SplineSet
50 50 m 1
 122 50 l 1
 72 0 l 1
 50 0 l 1
 50 50 l 1
EndSplineSet
EndChar

StartChar: midBR
Encoding: 65559 -1 102
Width: 0
VWidth: 0
Flags: HW
LayerCount: 2
Fore
SplineSet
50 0 m 1
 50 50 l 1
 122 50 l 1
 172 0 l 1
 50 0 l 1
EndSplineSet
EndChar

StartChar: chamferBL
Encoding: 65560 -1 103
Width: 0
VWidth: 0
Flags: HW
LayerCount: 2
Fore
SplineSet
50 50 m 1
 50 0 l 1
 28 0 l 1
 0 28 l 1
 0 50 l 1
 50 50 l 1
EndSplineSet
EndChar

StartChar: concaveBL
Encoding: 65561 -1 104
Width: 0
VWidth: 0
Flags: HW
LayerCount: 2
Fore
SplineSet
-22 50 m 1
 50 50 l 1
 50 0 l 1
 0 0 l 1
 0 28 l 1
 -22 50 l 1
EndSplineSet
EndChar

StartChar: convexBL
Encoding: 65562 -1 105
Width: 0
VWidth: 0
Flags: HW
LayerCount: 2
Fore
SplineSet
50 50 m 1
 50 0 l 1
 28 0 l 1
 -22 50 l 1
 50 50 l 1
EndSplineSet
EndChar

StartChar: midBL
Encoding: 65563 -1 106
Width: 0
VWidth: 0
Flags: HW
LayerCount: 2
Fore
SplineSet
50 0 m 1
 -72 0 l 1
 -22 50 l 1
 50 50 l 1
 50 0 l 1
EndSplineSet
EndChar

StartChar: chamferTL
Encoding: 65564 -1 107
Width: 0
VWidth: 0
Flags: HW
LayerCount: 2
Fore
SplineSet
50 50 m 1
 0 50 l 1
 0 72 l 1
 28 100 l 1
 50 100 l 1
 50 50 l 1
EndSplineSet
EndChar

StartChar: concaveTL
Encoding: 65565 -1 108
Width: 0
VWidth: 0
Flags: HW
LayerCount: 2
Fore
SplineSet
-22 50 m 1
 0 72 l 1
 0 100 l 1
 50 100 l 1
 50 50 l 1
 -22 50 l 1
EndSplineSet
EndChar

StartChar: convexTL
Encoding: 65566 -1 109
Width: 0
VWidth: 0
Flags: HW
LayerCount: 2
Fore
SplineSet
50 50 m 1
 -22 50 l 1
 28 100 l 1
 50 100 l 1
 50 50 l 1
EndSplineSet
EndChar

StartChar: midTL
Encoding: 65567 -1 110
Width: 0
VWidth: 0
Flags: HW
LayerCount: 2
Fore
SplineSet
50 100 m 1
 50 50 l 1
 -22 50 l 1
 -72 100 l 1
 50 100 l 1
EndSplineSet
EndChar

StartChar: four.alt
Encoding: 65570 -1 115
Width: 600
Flags: HW
LayerCount: 2
Fore
SplineSet
450 0 m 1
 350 0 l 1
 350 200 l 1
 50 200 l 1
 50 370 l 1
 380 700 l 1
 450 700 l 1
 450 300 l 1
 550 300 l 1
 550 200 l 1
 450 200 l 1
 450 0 l 1
150 300 m 1
 350 300 l 1
 350 500 l 1
 320 500 l 1
 150 330 l 1
 150 300 l 1
EndSplineSet
EndChar
